<svg width="26" height="24" viewBox="0 0 26 24" fill="none" xmlns="http://www.w3.org/2000/svg">
<path fill-rule="evenodd" clip-rule="evenodd" d="M18.1395 1.7561V3.73463L20.5581 5.6078V1.7561H18.1395ZM22.3721 7.01268V1.46341C22.3721 0.65561 21.6949 0 20.8605 0H17.8372C17.0028 0 16.3256 0.65561 16.3256 1.46341V2.32976L15.8334 1.9481C15.0292 1.32511 14.03 0.985689 13 0.985689C11.97 0.985689 10.9708 1.32511 10.1666 1.9481L0.341023 9.55785C0.153077 9.70332 0.0325198 9.91511 0.00587222 10.1466C-0.0207754 10.3782 0.0486697 10.6104 0.19893 10.7924C0.349191 10.9743 0.567958 11.0911 0.807106 11.1169C1.04625 11.1426 1.28619 11.0754 1.47414 10.93L2.4186 10.1971V22.2439H0.906977C0.666432 22.2439 0.435739 22.3364 0.265647 22.5011C0.0955562 22.6657 0 22.8891 0 23.122C0 23.3548 0.0955562 23.5782 0.265647 23.7428C0.435739 23.9075 0.666432 24 0.906977 24H25.093C25.3336 24 25.5643 23.9075 25.7344 23.7428C25.9044 23.5782 26 23.3548 26 23.122C26 22.8891 25.9044 22.6657 25.7344 22.5011C25.5643 22.3364 25.3336 22.2439 25.093 22.2439H23.5814V10.1971L24.5271 10.93C24.7153 11.072 24.9538 11.1364 25.1909 11.1094C25.4279 11.0823 25.6443 10.9659 25.7933 10.7853C25.9422 10.6048 26.0116 10.3747 25.9865 10.1449C25.9614 9.91511 25.8437 9.70419 25.659 9.55785L22.3721 7.01268ZM21.7674 8.7922L14.7003 3.31902C14.2177 2.94511 13.6181 2.74139 13 2.74139C12.3819 2.74139 11.7823 2.94511 11.2997 3.31902L4.23256 8.7922V22.2439H8.46512V17.2098C8.46512 16.4324 8.46512 15.7616 8.54009 15.2242C8.61991 14.6482 8.80009 14.0968 9.26205 13.6496C9.724 13.2023 10.2948 13.0279 10.8886 12.9506C11.4436 12.878 12.1366 12.878 12.9407 12.878H13.0593C13.8634 12.878 14.5564 12.878 15.1114 12.9506C15.7064 13.0279 16.276 13.2023 16.738 13.6496C17.1999 14.0968 17.3801 14.6482 17.4599 15.2242C17.5349 15.7616 17.5349 16.4324 17.5349 17.2109V22.2439H21.7674V8.7922ZM15.7209 22.2439V17.2683C15.7209 16.416 15.7185 15.8634 15.6629 15.4583C15.6097 15.0779 15.525 14.9584 15.4549 14.8917C15.386 14.825 15.2626 14.7419 14.8696 14.6903C14.45 14.6365 13.8804 14.6341 13 14.6341C12.1196 14.6341 11.5488 14.6365 11.1304 14.6903C10.7374 14.7419 10.614 14.825 10.5451 14.8917C10.4762 14.9584 10.3903 15.0779 10.3371 15.4583C10.2815 15.8646 10.2791 16.416 10.2791 17.2683V22.2439H15.7209ZM13 7.02439C12.8015 7.02439 12.6049 7.06224 12.4215 7.13579C12.2381 7.20933 12.0715 7.31712 11.9311 7.45301C11.7907 7.5889 11.6794 7.75023 11.6034 7.92778C11.5275 8.10533 11.4884 8.29563 11.4884 8.4878C11.4884 8.67998 11.5275 8.87028 11.6034 9.04783C11.6794 9.22538 11.7907 9.3867 11.9311 9.5226C12.0715 9.65849 12.2381 9.76628 12.4215 9.83982C12.6049 9.91337 12.8015 9.95122 13 9.95122C13.4009 9.95122 13.7854 9.79704 14.0689 9.5226C14.3524 9.24815 14.5116 8.87593 14.5116 8.4878C14.5116 8.09968 14.3524 7.72746 14.0689 7.45301C13.7854 7.17857 13.4009 7.02439 13 7.02439ZM9.67442 8.4878C9.67442 7.63394 10.0248 6.81504 10.6485 6.21127C11.2721 5.60749 12.118 5.26829 13 5.26829C13.882 5.26829 14.7279 5.60749 15.3515 6.21127C15.9752 6.81504 16.3256 7.63394 16.3256 8.4878C16.3256 9.34167 15.9752 10.1606 15.3515 10.7643C14.7279 11.3681 13.882 11.7073 13 11.7073C12.118 11.7073 11.2721 11.3681 10.6485 10.7643C10.0248 10.1606 9.67442 9.34167 9.67442 8.4878Z" fill="#CD28E8"/>
</svg>
