<svg width="35" height="16" viewBox="0 0 35 16" fill="none" xmlns="http://www.w3.org/2000/svg">
<path d="M34.59 13.0002L30.51 8.00024L34.51 3.10024C34.7288 2.83219 34.8666 2.50732 34.9074 2.16372C34.9481 1.82012 34.89 1.47203 34.74 1.16024C34.588 0.810783 34.336 0.51414 34.0156 0.307707C33.6953 0.101274 33.321 -0.00570965 32.94 0.000244141H1.94C1.68917 -0.00372696 1.44001 0.0417547 1.20676 0.13409C0.973502 0.226426 0.760723 0.363807 0.580571 0.538387C0.400419 0.712968 0.256424 0.921327 0.156808 1.15156C0.0571926 1.3818 0.00390885 1.62941 0 1.88024V14.1302C0.0105107 14.6351 0.220501 15.1152 0.58405 15.4656C0.947598 15.8161 1.43512 16.0083 1.94 16.0002H33.05C33.4183 16.0064 33.7806 15.907 34.0943 15.7139C34.4079 15.5208 34.6597 15.2419 34.82 14.9102C34.9639 14.6022 35.0186 14.26 34.978 13.9224C34.9373 13.5848 34.8029 13.2653 34.59 13.0002ZM2 14.0002V2.00024H32.78L27.94 7.93024L32.85 14.0002H2Z" fill="#28B0E8"/>
<path d="M9.39 9.35024L6.13 5.00024H5V11.1802H6.13V6.84024L9.39 11.1802H10.51V5.00024H9.39V9.35024Z" fill="#28B0E8"/>
<path d="M12.18 11.1802H16.84V10.1602H13.31V8.55024H16.5V7.52024H13.31V6.03024H16.84V5.00024H12.18V11.1802Z" fill="#28B0E8"/>
<path d="M24.52 9.43024L23.06 5.00024H21.84L20.37 9.43024L19.05 5.00024H17.82L19.78 11.1802H20.89L22.45 6.59024L24 11.1802H25.13L27.08 5.00024H25.85L24.52 9.43024Z" fill="#28B0E8"/>
</svg>
