<svg width="21" height="24" viewBox="0 0 21 24" fill="none" xmlns="http://www.w3.org/2000/svg">
<path d="M15.75 8.8421C15.75 15.5747 5.25 15.5747 5.25 8.8421H7.875C7.875 12.2147 13.125 12.2147 13.125 8.8421M21 20.2105V24H0V20.2105C0 16.8379 6.99563 15.1579 10.5 15.1579C14.0044 15.1579 21 16.8379 21 20.2105ZM18.5063 20.2105C18.5063 19.4021 14.3981 17.5579 10.5 17.5579C6.60187 17.5579 2.49375 19.4021 2.49375 20.2105V21.6H18.5063M11.1562 0C11.5238 0 11.8125 0.277895 11.8125 0.631579V4.42105H13.125V1.26316C14.0539 1.67687 14.8321 2.34972 15.3587 3.19438C15.8853 4.03905 16.1359 5.01653 16.0781 6C16.0781 6 16.9969 6.17684 17.0625 7.57895H3.9375C3.9375 6.17684 4.92188 6 4.92188 6C4.86406 5.01653 5.11472 4.03905 5.64131 3.19438C6.16791 2.34972 6.94613 1.67687 7.875 1.26316V4.42105H9.1875V0.631579C9.1875 0.277895 9.47625 0 9.84375 0" fill="#264493"/>
</svg>
